<?xml version="1.0" encoding="utf-8"?>
<!-- Generator: Adobe Illustrator 16.0.0, SVG Export Plug-In . SVG Version: 6.00 Build 0)  -->
<!DOCTYPE svg PUBLIC "-//W3C//DTD SVG 1.1//EN" "http://www.w3.org/Graphics/SVG/1.1/DTD/svg11.dtd">
<svg version="1.1" id="Layer_1" xmlns="http://www.w3.org/2000/svg" xmlns:xlink="http://www.w3.org/1999/xlink" x="0px" y="0px"
	 width="512px" height="512px" viewBox="0 0 512 512" enable-background="new 0 0 512 512" xml:space="preserve">
<g>
	<path d="M495.384,233.815l-75.08-75.08V72.004c0-15.682-12.708-28.391-28.413-28.391c-15.669,0-28.377,12.709-28.377,28.391v29.941
		L307.61,46.041c-27.638-27.624-75.693-27.575-103.269,0.05L16.613,233.815c-11.082,11.104-11.082,29.071,0,40.157
		c11.087,11.101,29.089,11.101,40.172,0l187.71-187.729c6.115-6.083,16.892-6.083,22.975-0.018l187.742,187.746
		c5.568,5.551,12.825,8.314,20.081,8.314c7.271,0,14.541-2.764,20.091-8.314C506.471,262.887,506.471,244.92,495.384,233.815z"/>
	<path d="M265.862,140.137c-5.456-5.451-14.285-5.451-19.723,0L81.014,305.213c-2.607,2.607-4.085,6.164-4.085,9.877v120.402
		c0,28.252,22.908,51.16,51.16,51.16h81.754V360.041h92.299v126.611h81.754c28.251,0,51.16-22.908,51.16-51.16V315.09
		c0-3.713-1.465-7.27-4.085-9.877L265.862,140.137z"/>
</g>
</svg>
